<svg xmlns="http://www.w3.org/2000/svg" viewBox="0 0 178.48 276.94"><defs><style>.cls-1{fill:#0f1fe8;}</style></defs><g id="Capa_2" data-name="Capa 2"><g id="Capa_1-2" data-name="Capa 1"><path class="cls-1" d="M46.09,79.7h19.2a1.16,1.16,0,0,0,1.16-1.16V51.64a1.17,1.17,0,0,1,2.06-.76L93,79.3a1.18,1.18,0,0,0,.89.4h20.53a1.16,1.16,0,0,0,1.17-1.16V30.63a1.16,1.16,0,0,0-1.17-1.16H95.23a1.16,1.16,0,0,0-1.17,1.16V58.35a1.17,1.17,0,0,1-2,.76L66.8,29.87a1.14,1.14,0,0,0-.88-.4H46.09a1.17,1.17,0,0,0-1.17,1.16V78.54A1.17,1.17,0,0,0,46.09,79.7Z"/><path class="cls-1" d="M85.06,140.47a1.17,1.17,0,0,1,0-1.28l28.38-47.3a1.18,1.18,0,0,0-1-1.77H90a1.17,1.17,0,0,0-1,.57l-20.38,34a1.17,1.17,0,0,1-2.17-.6V91.29a1.17,1.17,0,0,0-1.16-1.17H46.09a1.18,1.18,0,0,0-1.17,1.17v94.55A1.17,1.17,0,0,0,46.09,187h19.2a1.16,1.16,0,0,0,1.16-1.17V160.17A1.17,1.17,0,0,1,67.62,159h4.91a1.17,1.17,0,0,1,1,.48l19.38,27a1.16,1.16,0,0,0,1,.49H116a1.16,1.16,0,0,0,.95-1.84Z"/><path class="cls-1" d="M33.34,29.47H1.17A1.16,1.16,0,0,0,0,30.63V48.45a1.17,1.17,0,0,0,1.17,1.17H11.81A1.16,1.16,0,0,1,13,50.79V116.9a1.16,1.16,0,0,1-1.16,1.17H1.17A1.17,1.17,0,0,0,0,119.24v17.82a1.16,1.16,0,0,0,1.17,1.16H33.34a1.16,1.16,0,0,0,1.16-1.16V30.63A1.16,1.16,0,0,0,33.34,29.47Z"/><rect class="cls-1" x="54.94" width="48.51" height="12.42" rx="1.17"/><path class="cls-1" d="M177.31,118.07H137.4a1.54,1.54,0,0,1-1.32-2.33l38.61-64.33a7.59,7.59,0,0,0,1.08-3.88V30.63a1.17,1.17,0,0,0-1.17-1.16H127.18A1.16,1.16,0,0,0,126,30.63V48.45a1.17,1.17,0,0,0,1.17,1.17h21.4a1.17,1.17,0,0,1,1,1.77l-51,85.06a1.17,1.17,0,0,0,1,1.77h67.26a1.18,1.18,0,0,0,1-.57l10.49-17.82A1.17,1.17,0,0,0,177.31,118.07Z"/><path class="cls-1" d="M18.66,149.91H10.79a.33.33,0,0,0-.33.33v22a.34.34,0,0,0,.33.34h7.87a9.27,9.27,0,0,0,6.7-2.6,8.91,8.91,0,0,0,2.7-6.71v-4.08a8.91,8.91,0,0,0-2.7-6.7A9.24,9.24,0,0,0,18.66,149.91Zm4.12,13.39a5.81,5.81,0,0,1-1.19,3.81,4,4,0,0,1-3.29,1.45H16.08a.34.34,0,0,1-.34-.34V154.3a.34.34,0,0,1,.34-.34H18.3a4,4,0,0,1,3.29,1.44,5.75,5.75,0,0,1,1.19,3.79Z"/><path class="cls-1" d="M129.63,149.91H114.49a.33.33,0,0,0-.33.33v22a.34.34,0,0,0,.33.34H129.6a.34.34,0,0,0,.34-.34v-3.38a.34.34,0,0,0-.34-.33h-9.82a.34.34,0,0,1-.34-.34v-5a.34.34,0,0,1,.34-.33H128a.34.34,0,0,0,.34-.34v-3.38a.34.34,0,0,0-.34-.34h-8.23a.34.34,0,0,1-.34-.33V154.3a.34.34,0,0,1,.34-.34h9.85a.34.34,0,0,0,.34-.34v-3.38A.34.34,0,0,0,129.63,149.91Z"/><path class="cls-1" d="M161,149.91H156.2a.44.44,0,0,0-.38.24l-8.42,14.69v0l-.36.75h-.09l.06-.81s0,0,0,0l-.4-14.63a.23.23,0,0,0-.25-.24h-4.79a.45.45,0,0,0-.44.44l1.13,22a.25.25,0,0,0,.26.23h5.2a.48.48,0,0,0,.39-.23l13.11-22C161.34,150.13,161.24,149.91,161,149.91Z"/><path class="cls-1" d="M9.05,247.52H6.66V218.79H9.05Z"/><path class="cls-1" d="M53.79,247.52H51.43L38.6,223.46l-.12,0v24H36.09V218.79h2.39l12.83,24.06.12,0v-24h2.36Zm-3.45-36a4.54,4.54,0,0,1-.93,2.92,2.86,2.86,0,0,1-2.31,1.16,3.83,3.83,0,0,1-2.46-1.08,3.68,3.68,0,0,0-2.12-1.07,1.52,1.52,0,0,0-1.26.69,2.85,2.85,0,0,0-.51,1.74l-1.46-.36a4.52,4.52,0,0,1,.92-2.91,2.82,2.82,0,0,1,2.31-1.17,4,4,0,0,1,2.38,1.1,3.94,3.94,0,0,0,2.2,1.11,1.52,1.52,0,0,0,1.26-.73,3,3,0,0,0,.52-1.82Z"/><path class="cls-1" d="M93.66,239.55H83.18l-2.45,8H78.29l9.09-28.73h2.16l9,28.73H96.09Zm-9.81-2.17H93l-4.5-14.78h-.12Z"/><path class="cls-1" d="M128.12,234H125v13.52h-2.37V218.79H125V232h3l9.1-13.2h2.76L130,232.88l10.58,14.64h-2.94Z"/><path class="cls-1" d="M167.39,247.52H165V218.79h2.38Z"/><path class="cls-1" d="M40.79,275.65h8.88v1.29H39.18v-1.2l8.51-15.94H39.38v-1.33h10v1.14Z"/><path class="cls-1" d="M64.74,271.82H58l-1.57,5.12H54.85l5.85-18.47h1.39l5.78,18.47H66.3Zm-6.31-1.4h5.89l-2.89-9.5h-.08Z"/><path class="cls-1" d="M75.43,268.58v8.36H73.91V258.48h5.3A5.15,5.15,0,0,1,83,259.79a5.1,5.1,0,0,1,1.32,3.8,5,5,0,0,1-.7,2.61,4.22,4.22,0,0,1-2,1.7,3.23,3.23,0,0,1,2,1.55,5.69,5.69,0,0,1,.62,2.78V274a6.71,6.71,0,0,0,.16,1.55,2.52,2.52,0,0,0,.56,1.12v.3H83.46a2.66,2.66,0,0,1-.54-1.27,9.55,9.55,0,0,1-.14-1.73v-1.7a4,4,0,0,0-.85-2.67,2.93,2.93,0,0,0-2.34-1Zm0-1.29H79a3.69,3.69,0,0,0,2.86-1,3.85,3.85,0,0,0,.91-2.71,4,4,0,0,0-.89-2.79,3.47,3.47,0,0,0-2.7-1H75.43Z"/><path class="cls-1" d="M100.14,271.82H93.4l-1.57,5.12H90.26l5.85-18.47h1.38l5.78,18.47H101.7Zm-6.31-1.4h5.89l-2.89-9.5h-.08Z"/><path class="cls-1" d="M118,259.81h-5.16v17.13h-1.53V259.81h-5.15v-1.34H118Z"/><path class="cls-1" d="M133,268H125.7v7.64H134v1.29h-9.86V258.47H134v1.34H125.7v6.9H133Z"/></g></g></svg>