<svg xmlns="http://www.w3.org/2000/svg" viewBox="0 0 259.88 259.88"><defs><style>.cls-1{fill:#0f1fe8;}.cls-2{fill:#fff;}</style></defs><g id="Capa_2" data-name="Capa 2"><g id="Capa_1-2" data-name="Capa 1"><rect class="cls-1" width="259.88" height="259.88" rx="16.31"/><path class="cls-2" d="M88.16,113.86h19.19a1.17,1.17,0,0,0,1.17-1.17V85.79a1.17,1.17,0,0,1,2.06-.76l24.49,28.43a1.2,1.2,0,0,0,.89.4h20.53a1.17,1.17,0,0,0,1.17-1.17V64.79a1.18,1.18,0,0,0-1.17-1.17h-19.2a1.17,1.17,0,0,0-1.16,1.17V92.51a1.17,1.17,0,0,1-2.06.76L108.87,64a1.15,1.15,0,0,0-.88-.41H88.16A1.18,1.18,0,0,0,87,64.79v47.9A1.17,1.17,0,0,0,88.16,113.86Z"/><path class="cls-2" d="M127.13,174.62a1.17,1.17,0,0,1,0-1.28l28.37-47.29a1.17,1.17,0,0,0-1-1.77H132.07a1.17,1.17,0,0,0-1,.57l-20.38,34a1.17,1.17,0,0,1-2.17-.6V125.45a1.17,1.17,0,0,0-1.17-1.17H88.16A1.17,1.17,0,0,0,87,125.45V220a1.17,1.17,0,0,0,1.17,1.17h19.19a1.17,1.17,0,0,0,1.17-1.17V194.32a1.18,1.18,0,0,1,1.17-1.17h4.91a1.2,1.2,0,0,1,1,.49l19.37,27a1.17,1.17,0,0,0,1,.49h22.24a1.17,1.17,0,0,0,.95-1.85Z"/><path class="cls-2" d="M75.4,63.62H43.24a1.17,1.17,0,0,0-1.17,1.17V82.61a1.16,1.16,0,0,0,1.17,1.16H53.87A1.17,1.17,0,0,1,55,84.94v66.12a1.17,1.17,0,0,1-1.17,1.17H43.24a1.17,1.17,0,0,0-1.17,1.17v17.81a1.17,1.17,0,0,0,1.17,1.17H75.4a1.17,1.17,0,0,0,1.17-1.17V64.79A1.17,1.17,0,0,0,75.4,63.62Z"/><rect class="cls-2" x="97.01" y="34.16" width="48.51" height="12.42" rx="1.17"/><path class="cls-2" d="M219.38,152.23H179.47a1.54,1.54,0,0,1-1.32-2.33l38.61-64.33a7.62,7.62,0,0,0,1.07-3.89V64.79a1.17,1.17,0,0,0-1.17-1.17H169.24a1.17,1.17,0,0,0-1.16,1.17V82.61a1.16,1.16,0,0,0,1.16,1.16h21.41a1.17,1.17,0,0,1,1,1.77l-51,85.07a1.17,1.17,0,0,0,1,1.77h67.26a1.16,1.16,0,0,0,1-.58L220.38,154A1.17,1.17,0,0,0,219.38,152.23Z"/><path class="cls-2" d="M60.73,184.06H52.86a.34.34,0,0,0-.33.34v22a.34.34,0,0,0,.33.34h7.87a9.26,9.26,0,0,0,6.7-2.61,8.89,8.89,0,0,0,2.7-6.7v-4.09a8.9,8.9,0,0,0-2.7-6.69A9.27,9.27,0,0,0,60.73,184.06Zm4.11,13.4a5.8,5.8,0,0,1-1.18,3.81,4,4,0,0,1-3.29,1.44H58.15a.34.34,0,0,1-.34-.33V188.46a.34.34,0,0,1,.34-.34h2.22a4.05,4.05,0,0,1,3.29,1.43,5.77,5.77,0,0,1,1.18,3.79Z"/><path class="cls-2" d="M171.7,184.06H156.56a.35.35,0,0,0-.34.34v22a.34.34,0,0,0,.34.34h15.11a.34.34,0,0,0,.33-.34v-3.38a.34.34,0,0,0-.33-.34h-9.82a.34.34,0,0,1-.34-.33v-5a.34.34,0,0,1,.34-.34h8.23a.33.33,0,0,0,.33-.33v-3.38a.34.34,0,0,0-.33-.34h-8.23a.34.34,0,0,1-.34-.34v-4.2a.34.34,0,0,1,.34-.34h9.85a.34.34,0,0,0,.34-.34V184.4A.35.35,0,0,0,171.7,184.06Z"/><path class="cls-2" d="M203.08,184.06h-4.81a.48.48,0,0,0-.39.24L189.47,199l0,0-.35.75H189l.06-.81v0l-.4-14.63a.24.24,0,0,0-.26-.24h-4.79a.47.47,0,0,0-.44.44l1.14,22a.25.25,0,0,0,.26.24h5.2a.46.46,0,0,0,.38-.24l13.12-22C203.41,184.29,203.31,184.06,203.08,184.06Z"/></g></g></svg>