<svg xmlns="http://www.w3.org/2000/svg" viewBox="0 0 423.05 187.01"><defs><style>.cls-1{fill:#0f1fe8;}</style></defs><g id="Capa_2" data-name="Capa 2"><g id="Capa_1-2" data-name="Capa 1"><path class="cls-1" d="M46.09,79.7h19.2a1.16,1.16,0,0,0,1.16-1.16V51.64a1.17,1.17,0,0,1,2.06-.76L93,79.3a1.18,1.18,0,0,0,.89.4h20.53a1.16,1.16,0,0,0,1.17-1.16V30.63a1.16,1.16,0,0,0-1.17-1.16H95.23a1.16,1.16,0,0,0-1.17,1.16V58.35a1.17,1.17,0,0,1-2,.76L66.8,29.87a1.14,1.14,0,0,0-.88-.4H46.09a1.17,1.17,0,0,0-1.17,1.16V78.54A1.17,1.17,0,0,0,46.09,79.7Z"/><path class="cls-1" d="M85.06,140.47a1.17,1.17,0,0,1,0-1.28l28.38-47.3a1.18,1.18,0,0,0-1-1.77H90a1.17,1.17,0,0,0-1,.57l-20.38,34a1.17,1.17,0,0,1-2.17-.6V91.29a1.17,1.17,0,0,0-1.16-1.17H46.09a1.18,1.18,0,0,0-1.17,1.17v94.55A1.17,1.17,0,0,0,46.09,187h19.2a1.16,1.16,0,0,0,1.16-1.17V160.17A1.17,1.17,0,0,1,67.62,159h4.91a1.17,1.17,0,0,1,1,.48l19.38,27a1.16,1.16,0,0,0,1,.49H116a1.16,1.16,0,0,0,.95-1.84Z"/><path class="cls-1" d="M33.34,29.47H1.17A1.16,1.16,0,0,0,0,30.63V48.45a1.17,1.17,0,0,0,1.17,1.17H11.81A1.16,1.16,0,0,1,13,50.79V116.9a1.16,1.16,0,0,1-1.16,1.17H1.17A1.17,1.17,0,0,0,0,119.24v17.82a1.16,1.16,0,0,0,1.17,1.16H33.34a1.16,1.16,0,0,0,1.16-1.16V30.63A1.16,1.16,0,0,0,33.34,29.47Z"/><rect class="cls-1" x="54.94" width="48.51" height="12.42" rx="1.17"/><path class="cls-1" d="M177.31,118.07H137.4a1.54,1.54,0,0,1-1.32-2.33l38.61-64.33a7.59,7.59,0,0,0,1.08-3.88V30.63a1.17,1.17,0,0,0-1.17-1.16H127.18A1.16,1.16,0,0,0,126,30.63V48.45a1.17,1.17,0,0,0,1.17,1.17h21.4a1.17,1.17,0,0,1,1,1.77l-51,85.06a1.17,1.17,0,0,0,1,1.77h67.26a1.18,1.18,0,0,0,1-.57l10.49-17.82A1.17,1.17,0,0,0,177.31,118.07Z"/><path class="cls-1" d="M18.66,149.91H10.79a.33.33,0,0,0-.33.33v22a.34.34,0,0,0,.33.34h7.87a9.27,9.27,0,0,0,6.7-2.6,8.91,8.91,0,0,0,2.7-6.71v-4.08a8.91,8.91,0,0,0-2.7-6.7A9.24,9.24,0,0,0,18.66,149.91Zm4.12,13.39a5.81,5.81,0,0,1-1.19,3.81,4,4,0,0,1-3.29,1.45H16.08a.34.34,0,0,1-.34-.34V154.3a.34.34,0,0,1,.34-.34H18.3a4,4,0,0,1,3.29,1.44,5.75,5.75,0,0,1,1.19,3.79Z"/><path class="cls-1" d="M129.63,149.91H114.49a.33.33,0,0,0-.33.33v22a.34.34,0,0,0,.33.34H129.6a.34.34,0,0,0,.34-.34v-3.38a.34.34,0,0,0-.34-.33h-9.82a.34.34,0,0,1-.34-.34v-5a.34.34,0,0,1,.34-.33H128a.34.34,0,0,0,.34-.34v-3.38a.34.34,0,0,0-.34-.34h-8.23a.34.34,0,0,1-.34-.33V154.3a.34.34,0,0,1,.34-.34h9.85a.34.34,0,0,0,.34-.34v-3.38A.34.34,0,0,0,129.63,149.91Z"/><path class="cls-1" d="M161,149.91H156.2a.44.44,0,0,0-.38.24l-8.42,14.69v0l-.36.75h-.09l.06-.81s0,0,0,0l-.4-14.63a.23.23,0,0,0-.25-.24h-4.79a.45.45,0,0,0-.44.44l1.13,22a.25.25,0,0,0,.26.23h5.2a.48.48,0,0,0,.39-.23l13.11-22C161.34,150.13,161.24,149.91,161,149.91Z"/><path class="cls-1" d="M217.16,71.53h-3.47V29.75h3.47Z"/><path class="cls-1" d="M260.82,71.53h-3.45l-18.65-35-.17,0v35h-3.47V29.75h3.47l18.65,35,.17,0V29.75h3.45Zm-5-52.36a6.59,6.59,0,0,1-1.35,4.24,4.13,4.13,0,0,1-3.36,1.69,5.62,5.62,0,0,1-3.59-1.56A5.25,5.25,0,0,0,244.43,22a2.2,2.2,0,0,0-1.83,1,4.1,4.1,0,0,0-.75,2.52L239.73,25a6.63,6.63,0,0,1,1.33-4.22,4.1,4.1,0,0,1,3.37-1.71,5.77,5.77,0,0,1,3.46,1.61,5.72,5.72,0,0,0,3.2,1.6,2.2,2.2,0,0,0,1.82-1.05,4.37,4.37,0,0,0,.76-2.65Z"/><path class="cls-1" d="M297.39,59.94H282.15L278.6,71.53H275l13.23-41.78h3.12l13.09,41.78h-3.56Zm-14.26-3.16h13.31L289.9,35.29h-.17Z"/><path class="cls-1" d="M326.1,51.87h-4.48V71.53h-3.44V29.75h3.44V49H326l13.23-19.2h4L328.88,50.24l15.38,21.29H340Z"/><path class="cls-1" d="M361.81,71.53h-3.47V29.75h3.47Z"/><path class="cls-1" d="M212.19,135.13h20.09v2.93H208.55v-2.73l19.25-36H209v-3h22.52v2.58Z"/><path class="cls-1" d="M266.35,126.47H251.12l-3.56,11.59H244l13.23-41.78h3.13l13.08,41.78h-3.56Zm-14.26-3.16h13.32l-6.55-21.49h-.17Z"/><path class="cls-1" d="M290.53,119.15v18.91h-3.44V96.31h12q5.63,0,8.61,3c2,2,3,4.83,3,8.6a11.2,11.2,0,0,1-1.58,5.92,9.41,9.41,0,0,1-4.47,3.82,7.39,7.39,0,0,1,4.57,3.51,12.86,12.86,0,0,1,1.4,6.29v3.94a14.92,14.92,0,0,0,.37,3.5,5.7,5.7,0,0,0,1.26,2.53v.69h-3.53a6,6,0,0,1-1.22-2.88,22.17,22.17,0,0,1-.33-3.91v-3.83a9,9,0,0,0-1.92-6,6.6,6.6,0,0,0-5.28-2.24Zm0-2.93h8.15q4.41,0,6.47-2.25a8.74,8.74,0,0,0,2.05-6.13,9.06,9.06,0,0,0-2-6.31q-2-2.2-6.11-2.21h-8.55Z"/><path class="cls-1" d="M346.41,126.47H331.17l-3.55,11.59h-3.56l13.23-41.78h3.12l13.09,41.78h-3.56Zm-14.26-3.16h13.31l-6.54-21.49h-.17Z"/><path class="cls-1" d="M386.8,99.32H375.12v38.74h-3.44V99.32H360v-3H386.8Z"/><path class="cls-1" d="M420.61,117.86H404.2v17.27h18.85v2.93H400.76V96.28h22.12v3H404.2v15.61h16.41Z"/></g></g></svg>