<svg xmlns="http://www.w3.org/2000/svg" viewBox="0 0 178.48 187.01"><defs><style>.cls-1{fill:#0f1fe8;}</style></defs><g id="Capa_2" data-name="Capa 2"><g id="Capa_1-2" data-name="Capa 1"><path class="cls-1" d="M46.09,79.7h19.2a1.16,1.16,0,0,0,1.16-1.16V51.64a1.17,1.17,0,0,1,2.06-.76L93,79.3a1.18,1.18,0,0,0,.89.4h20.53a1.16,1.16,0,0,0,1.17-1.16V30.63a1.16,1.16,0,0,0-1.17-1.16H95.23a1.16,1.16,0,0,0-1.17,1.16V58.35a1.17,1.17,0,0,1-2,.76L66.8,29.87a1.14,1.14,0,0,0-.88-.4H46.09a1.17,1.17,0,0,0-1.17,1.16V78.54A1.17,1.17,0,0,0,46.09,79.7Z"/><path class="cls-1" d="M85.06,140.47a1.17,1.17,0,0,1,0-1.28l28.38-47.3a1.18,1.18,0,0,0-1-1.77H90a1.17,1.17,0,0,0-1,.57l-20.38,34a1.17,1.17,0,0,1-2.17-.6V91.29a1.17,1.17,0,0,0-1.16-1.17H46.09a1.18,1.18,0,0,0-1.17,1.17v94.55A1.17,1.17,0,0,0,46.09,187h19.2a1.16,1.16,0,0,0,1.16-1.17V160.17A1.17,1.17,0,0,1,67.62,159h4.91a1.17,1.17,0,0,1,1,.48l19.38,27a1.16,1.16,0,0,0,1,.49H116a1.16,1.16,0,0,0,.95-1.84Z"/><path class="cls-1" d="M33.34,29.47H1.17A1.16,1.16,0,0,0,0,30.63V48.45a1.17,1.17,0,0,0,1.17,1.17H11.81A1.16,1.16,0,0,1,13,50.79V116.9a1.16,1.16,0,0,1-1.16,1.17H1.17A1.17,1.17,0,0,0,0,119.24v17.82a1.16,1.16,0,0,0,1.17,1.16H33.34a1.16,1.16,0,0,0,1.16-1.16V30.63A1.16,1.16,0,0,0,33.34,29.47Z"/><rect class="cls-1" x="54.94" width="48.51" height="12.42" rx="1.17"/><path class="cls-1" d="M177.31,118.07H137.4a1.54,1.54,0,0,1-1.32-2.33l38.61-64.33a7.59,7.59,0,0,0,1.08-3.88V30.63a1.17,1.17,0,0,0-1.17-1.16H127.18A1.16,1.16,0,0,0,126,30.63V48.45a1.17,1.17,0,0,0,1.17,1.17h21.4a1.17,1.17,0,0,1,1,1.77l-51,85.06a1.17,1.17,0,0,0,1,1.77h67.26a1.18,1.18,0,0,0,1-.57l10.49-17.82A1.17,1.17,0,0,0,177.31,118.07Z"/><path class="cls-1" d="M18.66,149.91H10.79a.33.33,0,0,0-.33.33v22a.34.34,0,0,0,.33.34h7.87a9.27,9.27,0,0,0,6.7-2.6,8.91,8.91,0,0,0,2.7-6.71v-4.08a8.91,8.91,0,0,0-2.7-6.7A9.24,9.24,0,0,0,18.66,149.91Zm4.12,13.39a5.81,5.81,0,0,1-1.19,3.81,4,4,0,0,1-3.29,1.45H16.08a.34.34,0,0,1-.34-.34V154.3a.34.34,0,0,1,.34-.34H18.3a4,4,0,0,1,3.29,1.44,5.75,5.75,0,0,1,1.19,3.79Z"/><path class="cls-1" d="M129.63,149.91H114.49a.33.33,0,0,0-.33.33v22a.34.34,0,0,0,.33.34H129.6a.34.34,0,0,0,.34-.34v-3.38a.34.34,0,0,0-.34-.33h-9.82a.34.34,0,0,1-.34-.34v-5a.34.34,0,0,1,.34-.33H128a.34.34,0,0,0,.34-.34v-3.38a.34.34,0,0,0-.34-.34h-8.23a.34.34,0,0,1-.34-.33V154.3a.34.34,0,0,1,.34-.34h9.85a.34.34,0,0,0,.34-.34v-3.38A.34.34,0,0,0,129.63,149.91Z"/><path class="cls-1" d="M161,149.91H156.2a.44.44,0,0,0-.38.24l-8.42,14.69v0l-.36.75h-.09l.06-.81s0,0,0,0l-.4-14.63a.23.23,0,0,0-.25-.24h-4.79a.45.45,0,0,0-.44.44l1.13,22a.25.25,0,0,0,.26.23h5.2a.48.48,0,0,0,.39-.23l13.11-22C161.34,150.13,161.24,149.91,161,149.91Z"/></g></g></svg>